<?xml version="1.0" encoding="UTF-8" standalone="no"?>
<!DOCTYPE svg PUBLIC "-//W3C//DTD SVG 1.1//EN" "http://www.w3.org/Graphics/SVG/1.1/DTD/svg11.dtd">
<svg width="100%" height="100%" viewBox="0 0 2936 788" version="1.1" xmlns="http://www.w3.org/2000/svg" xmlns:xlink="http://www.w3.org/1999/xlink" xml:space="preserve" xmlns:serif="http://www.serif.com/" style="fill-rule:evenodd;clip-rule:evenodd;stroke-linecap:round;stroke-linejoin:round;stroke-miterlimit:1.5;">
    <g transform="matrix(1,0,0,1,-75.109998,-71.712778)">
        <g>
            <g transform="matrix(1,0,0,1,-132.977272,-141.666646)">
                <g transform="matrix(1,0,0,1,0,-762.776498)">
                    <g transform="matrix(1,0,0,1,8.436443,0)">
                        <g transform="matrix(0.777704,0,0,0.977216,46.697232,22.477758)">
                            <path d="M696.053,986.573L696.053,1143.696L210.067,1143.696L210.067,1112.271C210.067,1042.896 280.84,986.573 368.013,986.573L696.053,986.573Z" style="stroke:black;stroke-width:23.59px;"/>
                        </g>
                        <g transform="matrix(-0.777704,-0,0,-0.977216,751.390512,2481.811365)">
                            <path d="M696.053,986.573L696.053,1143.696L210.067,1143.696L210.067,1112.271C210.067,1042.896 280.84,986.573 368.013,986.573L696.053,986.573Z" style="stroke:black;stroke-width:23.59px;"/>
                        </g>
                        <g transform="matrix(0.777704,0,0,-0.977216,46.697232,2292.834987)">
                            <path d="M696.053,986.573L696.053,1017.997C696.053,1087.372 625.28,1143.696 538.108,1143.696L210.067,1143.696L210.067,1112.271C210.067,1042.896 280.84,986.573 368.013,986.573L696.053,986.573Z" style="stroke:black;stroke-width:23.59px;"/>
                        </g>
                    </g>
                    <g transform="matrix(0,0.777704,-0.977216,0,1760.776676,976.393518)">
                        <path d="M696.053,986.573L696.053,1143.696L210.067,1143.696L210.067,1112.271C210.067,1042.896 280.84,986.573 368.013,986.573L696.053,986.573Z" style="stroke:black;stroke-width:23.59px;"/>
                    </g>
                    <g transform="matrix(1,0,0,1,10.857401,0)">
                        <g transform="matrix(0.551038,0,-0,0.977216,1030.867759,211.102021)">
                            <path d="M696.053,1112.271L696.053,1143.696L210.067,1143.696L210.067,1112.271C210.067,1042.896 309.952,986.573 432.983,986.573L473.138,986.573C596.168,986.573 696.053,1042.896 696.053,1112.271Z" style="stroke:black;stroke-width:26.26px;"/>
                        </g>
                        <g transform="matrix(-0.551038,-0,0,-0.977216,1530.174544,2481.811365)">
                            <path d="M696.053,1112.271L696.053,1143.696L321.525,1143.696C260.01,1143.696 210.067,1115.534 210.067,1080.846L210.067,986.573L473.138,986.573C596.168,986.573 696.053,1042.896 696.053,1112.271Z" style="stroke:black;stroke-width:26.26px;"/>
                        </g>
                    </g>
                    <g transform="matrix(1,0,0,1,16.001748,-0)">
                        <g transform="matrix(0.546823,0,0,-0.977216,713.616725,2292.834987)">
                            <path d="M696.053,986.573L696.053,1143.696L210.067,1143.696L210.067,1112.271C210.067,1042.896 310.722,986.573 434.701,986.573L696.053,986.573Z" style="stroke:black;stroke-width:26.31px;"/>
                        </g>
                        <g transform="matrix(0,-0.93495,0.977216,0,-23.403665,1714.11918)">
                            <path d="M696.053,986.573L696.053,1017.997C696.053,1087.372 637.183,1143.696 564.672,1143.696L210.067,1143.696L210.067,1112.271C210.067,1042.896 268.937,986.573 341.448,986.573L696.053,986.573Z" style="stroke:black;stroke-width:21.78px;"/>
                        </g>
                    </g>
                </g>
                <g transform="matrix(1,0,0,1,1449.426207,-1346.26544)">
                    <g>
                        <g transform="matrix(-0.572367,0,-0,-0.977216,604.975551,2687.699667)">
                            <path d="M696.053,986.573L696.053,1017.997C696.053,1087.372 599.89,1143.696 481.445,1143.696L210.067,1143.696L210.067,1112.271C210.067,1042.896 306.23,986.573 424.676,986.573L696.053,986.573Z" style="stroke:black;stroke-width:26.02px;"/>
                        </g>
                        <g transform="matrix(-0.464578,0,-0,-0.977216,529.948446,2876.609643)">
                            <path d="M696.053,986.573L696.053,1143.696L210.067,1143.696L210.067,1112.271C210.067,1042.896 328.541,986.573 474.468,986.573L696.053,986.573Z" style="stroke:black;stroke-width:27.23px;"/>
                        </g>
                        <g transform="matrix(0,-0.315805,0.977216,0,-757.5171,2167.765255)">
                            <path d="M696.053,986.573L696.053,1143.696L598.856,1143.696C384.278,1143.696 210.067,1087.396 210.067,1018.052L210.067,986.573L696.053,986.573Z" style="stroke:black;stroke-width:28.69px;"/>
                        </g>
                    </g>
                    <g transform="matrix(1,0,0,1,269.131676,583.774655)">
                        <g transform="matrix(0.551038,0,-0,0.977216,1030.867759,211.102021)">
                            <path d="M696.053,1112.271L696.053,1143.696L210.067,1143.696L210.067,1112.271C210.067,1042.896 309.952,986.573 432.983,986.573L473.138,986.573C596.168,986.573 696.053,1042.896 696.053,1112.271Z" style="stroke:black;stroke-width:26.26px;"/>
                        </g>
                        <g transform="matrix(-0.551038,-0,0,-0.977216,1530.174544,2481.811365)">
                            <path d="M696.053,1112.271L696.053,1143.696L321.525,1143.696C260.01,1143.696 210.067,1115.534 210.067,1080.846L210.067,986.573L473.138,986.573C596.168,986.573 696.053,1042.896 696.053,1112.271Z" style="stroke:black;stroke-width:26.26px;"/>
                        </g>
                    </g>
                    <g>
                        <g transform="matrix(0,-0.799865,0.977216,0,255.393359,2504.696521)">
                            <path d="M696.053,986.573L696.053,1143.696L363.637,1143.696C278.88,1143.696 210.067,1087.372 210.067,1017.997L210.067,986.573L696.053,986.573Z" style="stroke:black;stroke-width:23.33px;"/>
                        </g>
                        <g transform="matrix(0.551038,0,-0,0.977216,989.479866,794.876676)">
                            <path d="M696.053,1112.271L696.053,1143.696L210.067,1143.696L210.067,1112.271C210.067,1042.896 309.952,986.573 432.983,986.573L473.138,986.573C596.168,986.573 696.053,1042.896 696.053,1112.271Z" style="stroke:black;stroke-width:26.26px;"/>
                        </g>
                        <g transform="matrix(-0.551038,-0,0,-0.977216,1488.786652,3065.586021)">
                            <path d="M696.053,1112.271L696.053,1143.696L210.067,1143.696L210.067,1112.271C210.067,1042.896 309.952,986.573 432.983,986.573L473.138,986.573C596.168,986.573 696.053,1042.896 696.053,1112.271Z" style="stroke:black;stroke-width:26.26px;"/>
                        </g>
                    </g>
                    <g transform="matrix(1,0,0,1,-31.804594,-0.066402)">
                        <g transform="matrix(-0.546823,-0,-0,0.977216,1209.104187,794.876676)">
                            <path d="M696.053,986.573L696.053,1143.696L210.067,1143.696L210.067,1112.271C210.067,1042.896 310.722,986.573 434.701,986.573L696.053,986.573Z" style="stroke:black;stroke-width:26.31px;"/>
                        </g>
                        <g transform="matrix(-0,-0.704794,-0.977216,0,1946.124577,2249.545491)">
                            <path d="M696.053,986.573L696.053,1143.696L210.067,1143.696L210.067,1112.271C210.067,1042.896 288.162,986.573 384.352,986.573L696.053,986.573Z" style="stroke:black;stroke-width:24.45px;"/>
                        </g>
                    </g>
                    <g>
                        <g transform="matrix(0.551038,0,-0,0.977216,368.984687,794.876676)">
                            <path d="M696.053,1112.271L696.053,1143.696L210.067,1143.696L210.067,1112.271C210.067,1042.896 309.952,986.573 432.983,986.573L473.138,986.573C596.168,986.573 696.053,1042.896 696.053,1112.271Z" style="stroke:black;stroke-width:26.26px;"/>
                        </g>
                        <g transform="matrix(-0.551038,-0,0,-0.977216,868.291473,3065.586021)">
                            <path d="M696.053,1112.271L696.053,1143.696L210.067,1143.696L210.067,1112.271C210.067,1042.896 309.952,986.573 432.983,986.573L473.138,986.573C596.168,986.573 696.053,1042.896 696.053,1112.271Z" style="stroke:black;stroke-width:26.26px;"/>
                        </g>
                    </g>
                </g>
            </g>
            <g transform="matrix(1,0,0,1,0,40.818169)">
                <g transform="matrix(4.958198,0,-0,0.977216,-956.029588,-309.717556)">
                    <path d="M696.053,986.573L696.053,1143.696L234.842,1143.696C221.168,1143.696 210.067,1087.372 210.067,1017.997L210.067,986.573L696.053,986.573Z" style="stroke:black;stroke-width:5.83px;"/>
                </g>
                <g transform="matrix(0.554955,0,-0,0.977216,2593.349637,-309.717556)">
                    <path d="M732.763,986.573L732.763,1018.829C732.763,1083.988 639.482,1143.696 510.57,1143.696L142.097,1143.696C220.275,1107.803 246.778,1060.213 246.778,1020.817L246.778,986.573L732.763,986.573Z" style="stroke:black;stroke-width:26.22px;"/>
                </g>
            </g>
        </g>
    </g>
</svg>
