<?xml version="1.0" encoding="UTF-8" standalone="no"?>
<!DOCTYPE svg PUBLIC "-//W3C//DTD SVG 1.1//EN" "http://www.w3.org/Graphics/SVG/1.1/DTD/svg11.dtd">
<svg width="100%" height="100%" viewBox="0 0 760 553" version="1.1" xmlns="http://www.w3.org/2000/svg" xmlns:xlink="http://www.w3.org/1999/xlink" xml:space="preserve" xmlns:serif="http://www.serif.com/" style="fill-rule:evenodd;clip-rule:evenodd;stroke-linecap:round;stroke-linejoin:round;stroke-miterlimit:1.5;">
    <g transform="matrix(1,0,0,1,-208.08727,-1837.844384)">
        <g>
            <g transform="matrix(1,0,0,1,472.250762,278.19952)">
                <g transform="matrix(-0.572367,0,-0,-0.977216,604.975551,2687.699667)">
                    <path d="M696.0530553682,986.5725879593L696.0530553682,1017.9972163566C696.0530553682,1087.3721197321 599.890354382,1143.6957393114 481.4448755746,1143.6957393114L210.0674942092,1143.6957393114L210.0674942092,1112.271110914C210.0674942092,1042.8962075386 306.2301951954,986.5725879593 424.6756740028,986.5725879593L696.0530553682,986.5725879593Z" style="stroke:black;stroke-width:26.02px;"/>
                </g>
                <g transform="matrix(-0.464578,0,-0,-0.977216,529.948446,2876.609643)">
                    <path d="M696.0530553682,986.5725879593L696.0530553682,1143.6957393114L210.0674942092,1143.6957393114L210.0674942092,1112.271110914C210.0674942092,1042.8962075386 328.541460031,986.5725879593 474.4681599266,986.5725879593L696.0530553682,986.5725879593Z" style="stroke:black;stroke-width:27.23px;"/>
                </g>
                <g transform="matrix(0,-1.093373,0.977216,0,-757.5171,2331.106814)">
                    <path d="M696.0530553682,1112.271110914L696.0530553682,1143.6957393114L322.412232593,1143.6957393114C260.4074835562,1143.6957393114 210.0674942092,1087.3721197321 210.0674942092,1017.9972163566L210.0674942092,986.5725879593L583.7083169844,986.5725879593C645.7130660213,986.5725879593 696.0530553682,1042.8962075386 696.0530553682,1112.271110914Z" style="stroke:black;stroke-width:20.09px;"/>
                </g>
            </g>
            <g transform="matrix(1,0,0,1,8.436443,861.688462)">
                <g transform="matrix(0.777704,0,0,0.977216,46.697232,22.477758)">
                    <path d="M696.0530553682,986.5725879593L696.0530553682,1143.6957393114L210.0674942092,1143.6957393114L210.0674942092,1112.271110914C210.0674942092,1042.8962075386 280.8404172903,986.5725879593 368.012810276,986.5725879593L696.0530553682,986.5725879593Z" style="stroke:black;stroke-width:23.59px;"/>
                </g>
                <g transform="matrix(-0.777704,-0,0,-0.977216,751.390512,2481.811365)">
                    <path d="M696.0530553682,986.5725879593L696.0530553682,1143.6957393114L210.0674942092,1143.6957393114L210.0674942092,1112.271110914C210.0674942092,1042.8962075386 280.8404172903,986.5725879593 368.012810276,986.5725879593L696.0530553682,986.5725879593Z" style="stroke:black;stroke-width:23.59px;"/>
                </g>
                <g transform="matrix(0.777704,0,0,-0.977216,46.697232,2292.834987)">
                    <path d="M696.0530553682,986.5725879593L696.0530553682,1017.9972163566C696.0530553682,1087.3721197321 625.2801322871,1143.6957393114 538.1077393014,1143.6957393114L210.0674942092,1143.6957393114L210.0674942092,1112.271110914C210.0674942092,1042.8962075386 280.8404172903,986.5725879593 368.012810276,986.5725879593L696.0530553682,986.5725879593Z" style="stroke:black;stroke-width:23.59px;"/>
                </g>
            </g>
        </g>
    </g>
</svg>
