<?xml version="1.0" encoding="UTF-8" standalone="no"?>
<!DOCTYPE svg PUBLIC "-//W3C//DTD SVG 1.1//EN" "http://www.w3.org/Graphics/SVG/1.1/DTD/svg11.dtd">
<svg width="100%" height="100%" viewBox="0 0 654 654" version="1.1" xmlns="http://www.w3.org/2000/svg" xmlns:xlink="http://www.w3.org/1999/xlink" xml:space="preserve" xmlns:serif="http://www.serif.com/" style="fill-rule:evenodd;clip-rule:evenodd;stroke-linecap:round;stroke-linejoin:round;stroke-miterlimit:1.5;">
    <g transform="matrix(1,0,0,1,-1664.227272,-1787.417089)">
        <g transform="matrix(1,0,0,1,1513.637944,1164.958527)">
            <g transform="matrix(-0.662361,0,0,0.681925,1027.595705,-7.959118)">
                <path d="M1276.8804811921,1186.795704065L1276.8804811921,1836.3003958312L786.5089958236,1836.3003958312C565.0735052869,1836.3003958312 385.2959816649,1661.6804241164 385.2959816649,1446.5975910951L385.2959816649,1273.396324472C385.2959816649,1106.1096749838 525.1229458049,970.2941401429 697.3505511851,970.2941401429L1053.9843563103,970.2941401429C1177.004076534,970.2941401429 1276.8804811921,1067.3052381099 1276.8804811921,1186.795704065Z" style="fill:white;stroke:black;stroke-width:92.98px;"/>
            </g>
            <g transform="matrix(1,0,0,1,-1107.21484,237.960982)">
                <g transform="matrix(0.369331,0,0,0.369331,864.066477,461.828635)">
                    <path d="M1535.4330708661,732.2834645669L1535.4330708661,779.5275590551L1370.0787401575,839.0912291803L1370.0787401575,897.6377952756L1535.4330708661,968.5039370079L1535.4330708661,1015.7480314961L2125.9842519685,1015.7123866111L2125.9842519685,732.2834645669L1535.4330708661,732.2834645669Z" style="fill:rgb(232,153,20);stroke:black;stroke-width:56.41px;"/>
                    <g transform="matrix(1,0,0,1,-56.976932,-35.468716)">
                        <path d="M2123.9060658134,1275.5905511811L2123.9060658134,1204.7600543338L1993.9848059709,1157.5159598456L1993.9848059709,1051.2167472472L1769.575357152,1051.2167472472L1769.575357152,1157.5159598456L1639.6540973095,1204.7600543338L1639.6540973095,1275.5905511811L2123.9060658134,1275.5905511811Z" style="fill:rgb(232,153,20);stroke:black;stroke-width:56.41px;"/>
                    </g>
                </g>
                <g transform="matrix(0.957692,0.287796,-0.287796,0.957692,1227.113388,-1114.046854)">
                    <rect x="772.3905092665" y="1455.5396780823" width="80.2268281797" height="164.6359898651" style="fill:rgb(232,153,20);stroke:black;stroke-width:20.83px;"/>
                    <g transform="matrix(0.801005,0,-0,1,169.666932,17.607071)">
                        <rect x="852.6173374461" y="1502.6435314735" width="250.8693279749" height="35.2141415413" style="fill:rgb(232,153,20);stroke:black;stroke-width:23px;"/>
                    </g>
                </g>
            </g>
        </g>
    </g>
</svg>
