<?xml version="1.0" encoding="UTF-8" standalone="no"?>
<!DOCTYPE svg PUBLIC "-//W3C//DTD SVG 1.1//EN" "http://www.w3.org/Graphics/SVG/1.1/DTD/svg11.dtd">
<svg width="100%" height="100%" viewBox="0 0 760 553" version="1.1" xmlns="http://www.w3.org/2000/svg" xmlns:xlink="http://www.w3.org/1999/xlink" xml:space="preserve" xmlns:serif="http://www.serif.com/" style="fill-rule:evenodd;clip-rule:evenodd;stroke-linecap:round;stroke-linejoin:round;stroke-miterlimit:1.5;">
    <g transform="matrix(1,0,0,1,-208.08727,-1837.844384)">
        <g>
            <g>
                <g transform="matrix(-0.572367,0,-0,-0.977216,1077.226313,2965.899187)">
                    <path d="M696.053055368181,986.572587959251L696.053055368181,1017.997216356626C696.053055368181,1087.372119732066 599.890354381996,1143.695739311393 481.444875574621,1143.695739311393L210.06749420923,1143.695739311393L210.06749420923,1112.271110914019C210.06749420923,1042.896207538579 306.230195195414,986.572587959251 424.67567400279,986.572587959251L696.053055368181,986.572587959251Z" style="stroke:black;stroke-width:26.02px;"/>
                </g>
                <g transform="matrix(-0.464578,0,-0,-0.977216,1002.199207,3154.809163)">
                    <path d="M696.053055368181,986.572587959251L696.053055368181,1143.695739311393L210.06749420923,1143.695739311393L210.06749420923,1112.271110914019C210.06749420923,1042.896207538579 328.541460030954,986.572587959251 474.468159926571,986.572587959251L696.053055368181,986.572587959251Z" style="stroke:black;stroke-width:27.23px;"/>
                </g>
                <g transform="matrix(0,-0.316393,0.977216,0,-285.266338,2446.088275)">
                    <path d="M696.053055368181,986.572587959251L696.053055368181,1143.695739311393L598.301433711218,1143.695739311393C384.029289481576,1143.695739311393 210.06749420923,1087.372119732066 210.06749420923,1017.997216356626L210.06749420923,986.572587959251L696.053055368181,986.572587959251Z" style="stroke:black;stroke-width:28.68px;"/>
                </g>
            </g>
            <g transform="matrix(1,0,0,1,8.436443,861.688462)">
                <g transform="matrix(0.777704,0,0,0.977216,46.697232,22.477758)">
                    <path d="M696.053055368181,986.572587959251L696.053055368181,1143.695739311393L210.06749420923,1143.695739311393L210.06749420923,1112.271110914019C210.06749420923,1042.896207538579 280.84041729029,986.572587959251 368.012810275988,986.572587959251L696.053055368181,986.572587959251Z" style="stroke:black;stroke-width:23.59px;"/>
                </g>
                <g transform="matrix(-0.777704,-0,0,-0.977216,751.390512,2481.811365)">
                    <path d="M696.053055368181,986.572587959251L696.053055368181,1143.695739311393L210.06749420923,1143.695739311393L210.06749420923,1112.271110914019C210.06749420923,1042.896207538579 280.84041729029,986.572587959251 368.012810275988,986.572587959251L696.053055368181,986.572587959251Z" style="stroke:black;stroke-width:23.59px;"/>
                </g>
                <g transform="matrix(0.777704,0,0,-0.977216,46.697232,2292.834987)">
                    <path d="M696.053055368181,986.572587959251L696.053055368181,1017.997216356626C696.053055368181,1087.372119732066 625.28013228712,1143.695739311393 538.107739301423,1143.695739311393L210.06749420923,1143.695739311393L210.06749420923,1112.271110914019C210.06749420923,1042.896207538579 280.84041729029,986.572587959251 368.012810275988,986.572587959251L696.053055368181,986.572587959251Z" style="stroke:black;stroke-width:23.59px;"/>
                </g>
            </g>
        </g>
    </g>
</svg>
